<?xml version="1.0" encoding="utf-8"?>
<!-- Generator: Adobe Illustrator 22.0.1, SVG Export Plug-In . SVG Version: 6.00 Build 0)  -->
<svg version="1.1" id="Слой_1" xmlns="http://www.w3.org/2000/svg" xmlns:xlink="http://www.w3.org/1999/xlink" x="0px" y="0px"
	 viewBox="0 0 24 24" style="enable-background:new 0 0 24 24;" xml:space="preserve">
<path d="M12,21.2c5,0,9.2-4.2,9.2-9.2c0-5-4.2-9.2-9.2-9.2C7,2.8,2.8,7,2.8,12C2.8,17,7,21.2,12,21.2z M16,7.8
	c1.1,1.1,1,2.5-0.3,3.7l-1.5,1.6c0.1-0.4,0.1-0.9,0-1.3l0.9-0.9c0.9-0.9,1-1.8,0.3-2.5c-0.7-0.7-1.6-0.6-2.5,0.3L11.6,10
	c-0.9,0.9-1,1.8-0.3,2.5c0.2,0.2,0.5,0.4,0.9,0.4c-0.1,0.3-0.4,0.6-0.7,0.8c-0.3,0-0.6-0.3-0.9-0.6c-1.1-1.1-1-2.5,0.3-3.8l1.3-1.3
	C13.5,6.8,14.9,6.7,16,7.8z M7.7,16.1c-1.1-1.1-1-2.5,0.3-3.7l1.5-1.6c-0.1,0.4-0.1,0.9,0,1.3L8.6,13c-0.9,0.9-1,1.8-0.3,2.5
	C9,16.2,10,16,10.8,15.2l1.3-1.3c0.9-0.9,1-1.8,0.3-2.5c-0.2-0.2-0.5-0.4-0.9-0.4c0.1-0.3,0.4-0.6,0.7-0.8c0.3,0,0.6,0.3,0.9,0.6
	c1.1,1.1,1,2.5-0.3,3.8l-1.3,1.3C10.2,17.1,8.8,17.2,7.7,16.1z"/>
</svg>
