<?xml version="1.0" encoding="utf-8"?>
<!-- Generator: Adobe Illustrator 22.0.1, SVG Export Plug-In . SVG Version: 6.00 Build 0)  -->
<svg version="1.1" id="Layer_1" xmlns="http://www.w3.org/2000/svg" xmlns:xlink="http://www.w3.org/1999/xlink" x="0px" y="0px"
	 viewBox="0 0 24 24" style="enable-background:new 0 0 24 24;" xml:space="preserve">
<g id="XMLID_1_">
	<path id="XMLID_3_" d="M12.4,10.1c-0.5,0-0.8,0.2-1.1,0.6c-0.2,0.4-0.4,1-0.5,1.7c0,0.5,0,0.9,0.1,1.2c0.1,0.3,0.3,0.4,0.6,0.4
		c0.2,0,0.5-0.1,0.6-0.2c0.2-0.1,0.4-0.4,0.5-0.7l0.3-2.9c-0.1,0-0.2,0-0.3-0.1C12.6,10.1,12.5,10.1,12.4,10.1z"/>
	<path id="XMLID_6_" d="M12,2.8c-5.1,0-9.2,4.1-9.2,9.2s4.1,9.2,9.2,9.2s9.2-4.1,9.2-9.2S17.1,2.8,12,2.8z M17.6,11.7
		c0,0.9-0.3,1.8-0.9,2.5c-0.5,0.7-1.4,1-2.5,1c-0.4,0-0.7-0.1-0.9-0.3c-0.3-0.2-0.4-0.5-0.6-0.8c-0.2,0.4-0.4,0.6-0.7,0.8
		c-0.3,0.2-0.6,0.3-1,0.3c-0.7,0-1.2-0.3-1.5-0.8c-0.4-0.5-0.5-1.2-0.4-2c0.1-1.1,0.4-1.9,1-2.6c0.5-0.6,1.2-1,2-1
		c0.5,0,1,0.1,1.3,0.2s0.7,0.3,1.1,0.5h0h0l-0.3,3.7c0,0.4,0,0.6,0.1,0.8c0.1,0.1,0.2,0.2,0.3,0.2c0.5,0,0.9-0.2,1.2-0.7
		c0.3-0.5,0.5-1,0.5-1.7c0.1-1.5-0.2-2.6-0.9-3.4c-0.7-0.8-1.7-1.2-3.1-1.2c-1.3,0-2.4,0.4-3.2,1.3C8.3,9.3,7.8,10.5,7.8,12
		c-0.1,1.5,0.2,2.6,1,3.5c0.7,0.9,1.7,1.3,3.1,1.3c0.4,0,0.8,0,1.2-0.1c0.4-0.1,0.8-0.2,1-0.3l0.3,1.1c-0.3,0.2-0.7,0.3-1.1,0.4
		c-0.5,0.1-0.9,0.1-1.4,0.1c-1.8,0-3.2-0.5-4.2-1.6c-1-1.1-1.4-2.5-1.3-4.4C6.4,10.1,7,8.6,8,7.6c1.1-1,2.5-1.6,4.3-1.6
		c1.7,0,3.1,0.5,4,1.5C17.3,8.6,17.7,10,17.6,11.7L17.6,11.7z"/>
</g>
</svg>
