<?xml version="1.0" encoding="utf-8"?>
<!-- Generator: Adobe Illustrator 22.0.1, SVG Export Plug-In . SVG Version: 6.00 Build 0)  -->
<svg version="1.1" id="Слой_1" xmlns="http://www.w3.org/2000/svg" xmlns:xlink="http://www.w3.org/1999/xlink" x="0px" y="0px"
	 viewBox="0 0 24 24" style="enable-background:new 0 0 24 24;" xml:space="preserve">
<g>
	<g>
		<path d="M18,4.6h-6.3c0-0.5-0.2-1-0.6-1.4c-0.4-0.4-0.8-0.6-1.3-0.6H8.5c-0.5,0-1,0.2-1.3,0.6C6.8,3.6,6.6,4.1,6.6,4.6H4.7
			c-0.5,0-1,0.2-1.3,0.6C3,5.6,2.8,6,2.8,6.6V17c0,0.5,0.2,1,0.6,1.4C3.8,18.8,4.2,19,4.7,19H13c0.1,0,0.2,0,0.3-0.1
			c0.1,0,0.1-0.1,0.2-0.2c0.1-0.1,0.2-0.3,0.1-0.5c0-0.2,0-0.4,0-0.5c0-1,0.3-1.8,0.8-2.6s1.2-1.3,2.1-1.7c0.9-0.3,1.8-0.4,2.7-0.2
			c0.2,0.1,0.4,0,0.6-0.1c0.1-0.1,0.1-0.1,0.2-0.2c0-0.1,0.1-0.2,0.1-0.3V6.6c0-0.5-0.2-1-0.6-1.4C19,4.8,18.5,4.6,18,4.6L18,4.6
			L18,4.6z M11.1,15.7c-1,0-1.9-0.4-2.7-1.2c-0.7-0.8-1.1-1.7-1.1-2.8s0.4-2,1.1-2.8c0.7-0.8,1.6-1.2,2.7-1.2S13,8.2,13.7,9
			c0.7,0.8,1.1,1.7,1.1,2.8c0,1.1-0.4,2-1.1,2.8C13,15.3,12.1,15.7,11.1,15.7L11.1,15.7L11.1,15.7z M17.1,9.2
			c-0.3,0-0.5-0.1-0.7-0.3c-0.2-0.2-0.3-0.4-0.3-0.7c0-0.3,0.1-0.5,0.3-0.7c0.2-0.2,0.4-0.3,0.7-0.3c0.3,0,0.5,0.1,0.7,0.3
			S18,7.9,18,8.2c0,0.3-0.1,0.5-0.3,0.7C17.5,9.1,17.3,9.2,17.1,9.2L17.1,9.2z M18,14.4c-0.9,0-1.6,0.3-2.2,1
			c-0.6,0.6-0.9,1.4-0.9,2.3c0,0.9,0.3,1.7,0.9,2.3c0.6,0.6,1.4,1,2.2,1c0.9,0,1.6-0.3,2.2-1c0.6-0.6,0.9-1.4,0.9-2.3
			c0-0.9-0.3-1.7-0.9-2.3C19.6,14.8,18.9,14.4,18,14.4L18,14.4z M19.3,18.3h-0.6V19c0,0.2-0.1,0.3-0.2,0.5s-0.3,0.2-0.4,0.2
			s-0.3-0.1-0.4-0.2s-0.2-0.3-0.2-0.5v-0.7h-0.6c-0.2,0-0.3-0.1-0.4-0.2s-0.2-0.3-0.2-0.5s0.1-0.3,0.2-0.5c0.1-0.1,0.3-0.2,0.4-0.2
			h0.6v-0.7c0-0.2,0.1-0.3,0.2-0.5c0.1-0.1,0.3-0.2,0.4-0.2s0.3,0.1,0.4,0.2c0.1,0.1,0.2,0.3,0.2,0.5V17h0.6c0.2,0,0.3,0.1,0.4,0.2
			c0.1,0.1,0.2,0.3,0.2,0.5s-0.1,0.3-0.2,0.5C19.6,18.3,19.4,18.3,19.3,18.3L19.3,18.3z"/>
	</g>
</g>
</svg>
