<?xml version="1.0" encoding="utf-8"?>
<!-- Generator: Adobe Illustrator 22.0.1, SVG Export Plug-In . SVG Version: 6.00 Build 0)  -->
<svg version="1.1" id="Capa_1" xmlns="http://www.w3.org/2000/svg" xmlns:xlink="http://www.w3.org/1999/xlink" x="0px" y="0px"
	 viewBox="0 0 24 24" style="enable-background:new 0 0 24 24;" xml:space="preserve">
<g>
	<path d="M10.7,12.6c3,0,5.4-2.2,5.4-4.9c0-2.7-2.4-4.9-5.4-4.9c-3,0-5.4,2.2-5.4,4.9C5.3,10.4,7.7,12.6,10.7,12.6z"/>
	<path d="M17.5,13.9c-0.3-0.5-0.6-1.1-1.1-1.6c-0.2-0.3-0.7-0.6-1.1-0.8c-1.1,1.1-2.8,1.9-4.6,1.9c-1.8,0-3.5-0.7-4.6-1.9
		C5.7,11.7,5.2,12,5,12.3c-0.8,0.9-2,2.7-2.2,5.1c0,0.5,0.2,1.3,0.7,1.6c0.9,0.6,2.8,1.3,6.8,1.3c1.4,0,2.5-0.1,3.5-0.2
		c-0.4-0.6-0.6-1.3-0.6-2C13.2,15.7,15.1,14,17.5,13.9z"/>
	<path d="M17.5,14.7c-2,0-3.6,1.5-3.6,3.3s1.6,3.3,3.6,3.3s3.6-1.5,3.6-3.3C21.2,16.1,19.5,14.7,17.5,14.7z M19.3,18.5h-1.4v1.3
		c0,0.2-0.2,0.4-0.4,0.4s-0.4-0.2-0.4-0.4v-1.3l-1.4,0c-0.2,0-0.4-0.2-0.4-0.4c0-0.2,0.2-0.4,0.4-0.4h1.4v-1.3
		c0-0.2,0.2-0.4,0.4-0.4c0.2,0,0.4,0.2,0.4,0.4v1.3h1.4c0.2,0,0.4,0.2,0.4,0.4C19.8,18.3,19.6,18.5,19.3,18.5z"/>
</g>
</svg>
