<?xml version="1.0" encoding="utf-8"?>
<!-- Generator: Adobe Illustrator 22.0.1, SVG Export Plug-In . SVG Version: 6.00 Build 0)  -->
<svg version="1.1" id="Capa_1" xmlns="http://www.w3.org/2000/svg" xmlns:xlink="http://www.w3.org/1999/xlink" x="0px" y="0px"
	 viewBox="0 0 24 24" style="enable-background:new 0 0 24 24;" xml:space="preserve">
<g>
	<g>
		<path d="M18.8,7H5.1C4.8,7,4.5,7.1,4.3,7.3C4.1,7.5,3.9,7.7,3.9,8l0.5,11.5c0,0.5,0.5,0.9,1.2,0.9h1v-0.8c0-0.9,1-1.7,2.2-1.7h6.4
			c1.2,0,2.2,0.7,2.2,1.7v0.8h1c0.6,0,1.2-0.4,1.2-0.9L20,8c0-0.2-0.1-0.5-0.3-0.7C19.5,7.1,19.2,7,18.8,7z"/>
		<path d="M15.2,19.2H8.8c-0.3,0-0.6,0.2-0.6,0.4v1.2c0,0.3,0.3,0.4,0.6,0.4h6.4c0.3,0,0.6-0.2,0.6-0.4v-1.2
			C15.8,19.4,15.6,19.2,15.2,19.2z"/>
		<path d="M21.2,3.8c0-0.6-0.6-1-1.4-1H4.2c-0.7,0-1.4,0.5-1.4,1V5c0,0.6,0.6,1,1.4,1h15.6c0.7,0,1.4-0.5,1.4-1L21.2,3.8L21.2,3.8z"
			/>
	</g>
</g>
</svg>
