<?xml version="1.0" encoding="utf-8"?>
<!-- Generator: Adobe Illustrator 22.0.1, SVG Export Plug-In . SVG Version: 6.00 Build 0)  -->
<svg version="1.1" id="Слой_1" xmlns="http://www.w3.org/2000/svg" xmlns:xlink="http://www.w3.org/1999/xlink" x="0px" y="0px"
	 viewBox="0 0 24 24" style="enable-background:new 0 0 24 24;" xml:space="preserve">
<g>
	<g>
		<path d="M8.1,14.5L9,15.4l2.1-0.8l-2.2-2.2L8.1,14.5z"/>
		<path d="M12,2.4c-5.1,0-9.2,4.1-9.2,9.2s4.1,9.2,9.2,9.2s9.2-4.1,9.2-9.2S17.1,2.4,12,2.4z M11.5,15.1L11.5,15.1
			C11.5,15.1,11.5,15.1,11.5,15.1l-4.3,1.6c-0.1,0-0.2,0-0.3-0.1c-0.1-0.1-0.1-0.2-0.1-0.3l1.5-4.2c0,0,0-0.1,0-0.1l0,0l3.8-3.8
			C12.6,8.6,13,9,13,9l-3,3c0,0-0.1,0.1-0.1,0.2s0,0.1,0.1,0.2s0.1,0.1,0.2,0.1c0.1,0,0.1,0,0.2-0.1l3-3l0.9,0.9l-3,3
			c-0.1,0.1-0.1,0.2,0,0.3c0,0,0.1,0.1,0.2,0.1c0.1,0,0.1,0,0.2-0.1l3-3c0,0,0.4,0.4,0.7,0.7L11.5,15.1z M16.9,9.8L15.7,11
			c-0.6-0.6-2-2-3.1-3.1l1.2-1.2c0.4-0.4,1.1-0.4,1.5,0l1.6,1.6C17.3,8.7,17.3,9.4,16.9,9.8z"/>
	</g>
</g>
</svg>
